<?xml version="1.0" encoding="UTF-8"?>
<svg id="Warstwa_1" data-name="Warstwa 1" xmlns="http://www.w3.org/2000/svg" viewBox="0 0 108.64 108.64">
  <defs>
    <style>
      .cls-1 {
        fill: #cac6ba;
      }

      .cls-2 {
        fill: #990909;
      }
    </style>
  </defs>
  <path class="cls-1" d="M108.64,54.32c0,30-24.32,54.32-54.32,54.32S0,84.32,0,54.32,24.32,0,54.32,0s54.32,24.32,54.32,54.32ZM12.74,82.48v3.35c.91-.22.05-2.62,1.07-2.39.15.03,2.46,1.71,2.54,1.84.49.82.1,2.46.23,3.43.35.06.3-.45.36-.71.15-.7.21-2.27,1.19-2.42,1.89-.29,1.3.59,1.64,1.98.06.24.07.72.41.66.37-.86.28-2.49.74-3.21.27-.41,1.87-1,2.5-1.58.29-.27.23-.74.59-.72.57,1.8-.05,3.47,0,5.27.61.76.79-1.96.83-2.16.05-.26.02-.77.36-.71l.25,1.43.47-.48.25,1.43.71-.72c.05.24-.07.86,0,.96.43.55.42-.62.72-.48v1.2s.96-.72.96-.72l.24.72c.83-1.32,1.11-3.58,1.8-4.79.4-.7.34.31.48.24.43-.23.24-.83.43-1.13.1-.16.48-.23.7-.61.79-1.32,4.06-9.23,4.54-9.5.15-.09,1.04.43,1.42-.18.35-.58.33-2.66.64-3.61.68-2.07,2.77-2.68,2.44-4.96-.06-.44-.77-3.27-.9-3.64-.12-.34-.48-.33-.51-.49-.08-.38.07-.81.01-1.14-.04-.24-.51-.04-.68-.19-.07-.06-.55-1.23-1.02-1.5-.76-.43-2.24.24-2.86.72-.47.37-.53,1.11-1.2,1.07.25-1.5,2.27-1.96,1.92-3.59-1.54-.29-1.02.33-1.42.78-.8.89-1.7,2.24-2.4,2.94-.32.32-.83.29-.92.4-.17.2,0,.98-.41,1.39-1.5,1.51-3.37,3.14-5.11,4.46-.62.47-1.41.81-1.86,1.35-.07.08.1.48-.18.67-.51.34-1.09.12-1.32.26-.15.09-.12.67-.33.87-.32.31-1.01.16-1.32.36-.16.1-.26.58-.53.79-.86.66-1.72.81-2.41,1.78.01-.88-.08-2.11.26-2.93.72-1.75,1.33-4.01,2.16-5.79.34-.72,1.24-1.34,1.36-1.75.76-2.51,1.66-5.77,2.91-7.92.28-.48,1.44-2.56,1.68-2.78.27-.24.4-.17.73-.16v3.35c.48-.1.41-.49.48-.84.22-1.11.28-4.42,1.02-5.09.24-.22.78-.23,1.12-.44,1.2-.74.53-1.57.75-2.57.04-.17.39-.18.46-.35.36-.86-.07-1.28,1.21-1.5l.49.61c.57-.92.1-3.11,1.67-3v3.11c.4.54.91-3.59,1.02-3.89.3-.83,1.04-1.2,1.14-2.1,1.79,1.05-.22,5.6.35,6.71.05.1.28.29.36.24.39-.52-.14-2.1.72-1.92-.09,1.33.42,2.43,1.31,3.36.15.15,1.39,1.19,1.49,1.2.5.03.9-.6,1.04.47.12.1,1.44-2.39.72,1.18,2.01,1.02,1.33-1.79,1.73-3.16.45-1.54,1.77-1.71,2.81-2.82-.01.19-.16,2.31.48,1.68.27-.27.32-2.02.84-2.39.29.39-.05,1.51.6,1.67.15-.78.13-1.86.42-2.57.07-.16,1.73-1.92,1.86-1.97.1-.04.6-.09.6.12.07.93-.19,2.07.18,2.94.66,1.54.79-2.08.85-2.39.07-.37.56-2.49.66-2.58.07-.06.51.03.71,0v7.67c-.18.14-.48-.49-.48-.6v-3.47c-.42-.05-.23.54-.24.84-.08,1.99.06,4.01,0,6-.01.57-.25,1.09-.26,1.66-.1,4.91.1,9.84,0,14.75l-.48-.24c-.75,2.87.26,5.89,0,8.76-.09,1.03-.72,2.02-.74,2.62-.02.63.44,1.45.49,2.17.09,1.34-.27,3.92,0,4.98.05.19.59.26.81.92.45,1.38.13,3.82.56,5.44.12.43-.07.62.55.52v-4.43c0-.61.53-1.8,1.32-1.08.87.8.91,3.21.84,4.31,1.2.18-.25-2.57.96-2.4v4.79c.48.06.39.05.54-.3.38-.89.09-2.1.18-3.06h.72c-.18,2.31.9.87.96.96.05,1.28-.17,2.6.24,3.83.79-.42.44-1.74.48-2.52.01-.31-.19-1.01.36-.84s.3,2.48.36,3c.04.35.18.74.48.35l.24-3.11.71.48c.06-.51.5-.98.96-1.2v2.51s.48,2.28.48,2.28l.24-4.31c1.24-.08-.59,1.94.96,1.92.5-1.13-.03-2.97.28-3.92.07-.23,1.83-2.44,2.01-3.01.25-.78-.05-1.61.11-2.25.05-.21.89-.09.24-1.12h.96c-.28,1.32.54,2.94.73.84.12-1.28,0-1.74.63-2.97.17-.33-.12-.64.56-.51v5.03c.55.03.43.09.48-.35.22-1.81.06-3.83.48-5.64l.48.72c.49.45,1.31-1.95,1.38-2.33.16-.88-.35-2.44.77-2.46.27.23-.12,2.13.72,1.92-.06-.67.15-3.99.48-4.31.41-.4.4.07.47.36.15.63.22,1.39.25,2.04.84-.4.35-1.67.5-2.5.22-1.25,1.04-2.71,1.8-3.71.26-.35.77-.44,1.03-.89.36-.63.13-1.27.4-1.77.14-.27,1.24-1.2,1.41-1.46.36-.55.48-1.53.69-1.83.22-.34,1.13-.43,1.31-.61.53-.57,1.46-3.16,1.83-3.93.49-1.01,1.7-1.31,1.93-2.01.68-2.08.8-1.5,1.91-3.13,1.19-1.74,1.99-3.92,3.01-5.86.39-.73,1.07-.89,1.32-1.32.29-.5.22-1.58.49-1.92.21-.26.71-.16.8-.27s.03-.78.17-1.15c.21-.55.69-.67.83-.89.23-.39.15-.99.36-1.28.19-.26.7-.15.86-.38.27-.39.14-1.3.48-1.87.19-.31,1.68-2.46,1.87-2.67.32-.35.86-.28.94-.37.09-.1.07-1.89.04-2.25-.08-1.25-.66-3.22-.96-4.5-.04-.16-1.24-.72-.73-1.84-.84.77-.97.33-.96-.72l-.71.24v-1.2s-.72.48-.72.48v-1.2c-.73-.08-.57,1.26-1.08,0-.41.7-1.24.53-1.73.79-.12.06-.15.39-.31.5-.12.09-.39-.07-.43-.03-.12.11-.2.62-.41.89-9.7,12.4-18.96,25.23-27.59,38.19-.32.48-.61,1.36-.93,1.83s-.63-.04-.55-.54,2.69-4.41,3.2-5.2c2.51-3.81,5.22-7.93,7.77-11.63,5.41-7.84,11.7-14.87,17.07-22.71.91-1.33,1.83-2.5,1.62-4.25-.54.09-.39.87-.72,1.09-.28.18-.8-.02-.99.25-.39.54-1.56,2.57-1.94,3.28-.18.33-.13.92-.3,1.14-.33.43-1.11.1-1.3.26-.1.08-.06.65-.19.87-.15.25-1.07,1.67-1.15,1.74-.37.33-.89.15-1.04.27-.11.09-.15.95-.37,1.32-.3.54-1.29.86-1.53,1.1-.55.53-.48,2-.56,2.08-.06.06-.75-.05-1.21.35-.8.7-1.81,3.14-2.71,3.99-.4.37-.9.39-1.03.52-.34.34-.12,1.97-.68,2.08-.21.04-.68-.31-.81-.22-.1.07-1.08,2.03-1.11,2.15-.08.37.19.76.1.91-.04.08-.31.1-.4.21-.19.24-.26.54-.28.56-.28.3-.14-.77-.48-.36-.53,1.6-1.75,2.2-2.33,3.66-.14.35-.25,1.44-.31,1.49-.09.08-.48-.32-.83-.01-.62.54-.97,2.7-1.12,2.85-.13.13-1.14.03-1.36.32-.12.17-.3,1.43-.55,1.91-.37.72-1.8,2.01-2.09,2.52-.67,1.16.47,2.36-1.48,1.99l.48.47c-.7-.18-1.77,3.27-1.91,1.32-.19-2.62.11-5.83-.22-8.41-.06-.46-.46-.23-.52-.69-.48-3.81-.28-7.98-1-11.94-.31-1.72-1.29-6.68-3.23-7.09-.89-.19-.97.58-1.5.91.05-.4-.1-.91,0-1.28.07-.29.59,0,.48-.39-.34-.01-.84-.39-1.16-.21-.38.21-.35,1.5-.76,1.64.17-1.29-1.96-4.7-2.98-5.29-.48-.28-.97-.15-1.33-.35-.31-.18-.86-1.41-1.45-1.67-3.01-1.31-8.4-.98-11.62-.82-.61.03-1.18-.28-1.67-.25-.3.02-3.88,1.69-4.05,1.88-.28.31-.15.63-.15.99l-.24-.48c-1.51-.18-1.74,1.22-2.52,1.7-1.23.75-2.06,1.36-3.24,2.29-.14.11-.2.55-.47.7-.33.18-.87-.24-.96-.14-.05.05.02.96-.22,1.29-.11.15-1.77,1.01-1.83,1.1-.25.36-.03,1.11-.11,1.22-.05.06-.61-.47-1.33.47-.39.51-.38,1.02-.57,1.3-.07.1-1.47,1.13-1.8,1.6-.29.41-.25,1.18-.44,1.36-.14.13-.54.05-.87.44-.09.11-1.06,1.68-1.23,1.95-.89,1.47-1.58,3.41-2.38,4.98-.56,1.09-.93.53-.96.59-.22.42-.21,1.42-.28,1.74-.06.27-.54.56-.7.99-.77,2.07-1.49,4.42-2.07,6.55-.13.49-.06.99-.07,1.49l-.24-1.2c-1.07.63-.21,2.35-.24,3.24-.02.68-.33,3.52-.52,4.04-.14.38-.63.21-.7.74-.42,3.39.72,7.52.24,11.02.06.29.7-.03.75.26.32,1.62-.31,3.94-.25,5.62.62.1.43-.09.55-.52.22-.82.1-1.44.2-2.21.03-.26.09-1.12.45-1.1.42,1.66-.24,3.5,0,5.27.95.08.17-1.43.74-2.25.21-.31.72-.59.93-.39.49.47-.43,5.15.48,6.23.35.05.37-.65.41-.9.13-.78.1-1.54.3-2.35.1-.4-.24-.7.48-.58Z"/>
  <g>
    <path class="cls-2" d="M12.74,82.48c-.73-.11-.38.18-.48.58-.2.81-.17,1.57-.3,2.35-.04.25-.06.95-.41.9-.91-1.08,0-5.75-.48-6.23-.21-.21-.72.08-.93.39-.57.82.21,2.33-.74,2.25-.24-1.77.42-3.61,0-5.27-.35-.02-.42.85-.45,1.1-.1.77.03,1.39-.2,2.21-.12.42.08.62-.55.52-.05-1.68.57-3.99.25-5.62-.06-.29-.7.03-.75-.26.48-3.5-.66-7.63-.24-11.02.07-.53.55-.36.7-.74.19-.52.5-3.36.52-4.04.03-.89-.83-2.61.24-3.24l.24,1.2c0-.5-.07-1,.07-1.49.58-2.13,1.3-4.48,2.07-6.55.16-.43.64-.72.7-.99.07-.32.06-1.32.28-1.74.03-.06.41.5.96-.59.8-1.58,1.49-3.51,2.38-4.98.17-.28,1.14-1.85,1.23-1.95.33-.39.74-.3.87-.44.19-.18.15-.95.44-1.36.33-.47,1.73-1.49,1.8-1.6.19-.28.18-.8.57-1.3.71-.94,1.28-.41,1.33-.47.08-.11-.14-.85.11-1.22.06-.09,1.72-.94,1.83-1.1.24-.33.17-1.24.22-1.29.09-.09.63.32.96.14.27-.14.33-.59.47-.7,1.19-.93,2.02-1.54,3.24-2.29.78-.48,1-1.88,2.52-1.7l.24.48c0-.36-.12-.67.15-.99.17-.19,3.76-1.86,4.05-1.88.49-.03,1.06.28,1.67.25,3.22-.16,8.61-.49,11.62.82.59.26,1.14,1.49,1.45,1.67.36.2.85.07,1.33.35,1.02.59,3.16,4,2.98,5.29.41-.15.38-1.43.76-1.64.31-.18.81.2,1.16.21.1.4-.42.1-.48.39-.09.37.05.88,0,1.28.53-.34.61-1.1,1.5-.91,1.94.41,2.92,5.36,3.23,7.09.72,3.95.52,8.12,1,11.94.06.46.46.23.52.69.33,2.58.03,5.79.22,8.41.14,1.94,1.21-1.5,1.91-1.32l-.48-.47c1.95.37.81-.83,1.48-1.99.29-.5,1.72-1.79,2.09-2.52.25-.48.43-1.75.55-1.91.21-.3,1.23-.19,1.36-.32.15-.16.5-2.32,1.12-2.85.35-.3.74.1.83.01.06-.05.17-1.14.31-1.49.58-1.46,1.8-2.06,2.33-3.66.34-.41.2.66.48.36.02-.02.09-.32.28-.56.09-.11.36-.13.4-.21.09-.15-.18-.55-.1-.91.03-.12,1.01-2.08,1.11-2.15.13-.09.6.26.81.22.56-.1.34-1.74.68-2.08.13-.13.63-.15,1.03-.52.9-.85,1.92-3.29,2.71-3.99.46-.4,1.15-.29,1.21-.35.08-.08,0-1.55.56-2.08.24-.23,1.23-.56,1.53-1.1.21-.37.26-1.23.37-1.32.15-.12.67.05,1.04-.27.08-.07,1-1.5,1.15-1.74.14-.23.09-.79.19-.87.19-.15.97.17,1.3-.26.17-.22.12-.81.3-1.14.39-.71,1.56-2.74,1.94-3.28.19-.27.71-.07.99-.25.33-.22.18-.99.72-1.09.21,1.75-.71,2.92-1.62,4.25-5.37,7.84-11.66,14.87-17.07,22.71-2.55,3.7-5.26,7.82-7.77,11.63-.52.79-3.11,4.67-3.2,5.2s.22,1.02.55.54.61-1.35.93-1.83c8.63-12.96,17.88-25.8,27.59-38.19.21-.27.29-.78.41-.89.05-.04.31.12.43.03.16-.11.19-.43.31-.5.49-.26,1.32-.09,1.73-.79.5,1.26.35-.08,1.08,0v1.2s.72-.48.72-.48v1.2s.72-.24.72-.24c0,1.05.12,1.49.96.72-.51,1.13.69,1.68.73,1.84.31,1.27.88,3.24.96,4.5.02.36.04,2.16-.04,2.25-.08.09-.62.02-.94.37-.19.21-1.69,2.37-1.87,2.67-.35.56-.21,1.48-.48,1.87-.16.23-.67.13-.86.38-.21.29-.13.89-.36,1.28-.14.23-.62.35-.83.89-.14.37-.08,1.05-.17,1.15s-.59,0-.8.27c-.27.34-.19,1.42-.49,1.92-.25.43-.93.59-1.32,1.32-1.02,1.93-1.82,4.11-3.01,5.86-1.11,1.63-1.24,1.05-1.91,3.13-.23.7-1.44,1-1.93,2.01-.37.76-1.3,3.35-1.83,3.93-.17.19-1.08.27-1.31.61-.2.31-.33,1.28-.69,1.83-.17.26-1.26,1.19-1.41,1.46-.27.5-.04,1.14-.4,1.77-.26.45-.77.54-1.03.89-.77,1-1.58,2.46-1.8,3.71-.14.83.34,2.1-.5,2.5-.02-.65-.1-1.41-.25-2.04-.07-.28-.06-.76-.47-.36-.33.33-.55,3.64-.48,4.31-.84.22-.45-1.68-.72-1.92-1.12.02-.61,1.58-.77,2.46-.07.39-.89,2.78-1.38,2.33l-.48-.72c-.42,1.81-.26,3.83-.48,5.64-.05.44.07.38-.48.35v-5.03c-.67-.13-.39.18-.56.51-.64,1.23-.52,1.69-.63,2.97-.19,2.1-1.01.47-.73-.85h-.96c.65,1.03-.19.91-.24,1.12-.16.64.14,1.47-.11,2.25-.18.57-1.94,2.79-2.01,3.01-.31.95.22,2.8-.28,3.92-1.54.03.28-2-.96-1.92l-.24,4.31-.47-2.28v-2.51c-.47.21-.91.68-.97,1.2l-.71-.48-.24,3.11c-.29.39-.43,0-.48-.35-.07-.52.18-2.83-.36-3s-.34.53-.36.84c-.04.78.32,2.1-.48,2.52-.41-1.24-.19-2.55-.24-3.83-.06-.09-1.13,1.35-.96-.96h-.72c-.09.96.2,2.17-.18,3.06-.15.35-.06.36-.54.3v-4.79c-1.21-.18.25,2.57-.96,2.4.07-1.11.03-3.52-.84-4.31-.79-.72-1.32.47-1.32,1.08v4.43c-.62.1-.43-.09-.55-.52-.44-1.62-.11-4.06-.56-5.44-.22-.67-.76-.73-.81-.92-.27-1.06.09-3.64,0-4.98-.05-.72-.51-1.54-.49-2.17.02-.59.65-1.59.74-2.62.26-2.87-.76-5.89,0-8.76l.48.24c.09-4.91-.11-9.84,0-14.75.01-.57.24-1.09.26-1.66.05-2-.09-4.01,0-6,.01-.29-.18-.89.24-.84v3.47c0,.11.29.74.48.6v-7.67c-.2.03-.64-.06-.71,0-.1.09-.59,2.21-.66,2.58-.06.31-.19,3.94-.85,2.39-.37-.86-.1-2.01-.18-2.94,0-.21-.5-.16-.6-.12-.12.05-1.79,1.81-1.86,1.97-.3.71-.27,1.8-.42,2.57-.64-.16-.3-1.28-.6-1.67-.52.37-.57,2.12-.84,2.39-.64.64-.49-1.49-.48-1.68-1.04,1.11-2.35,1.28-2.81,2.82-.41,1.37.28,4.18-1.73,3.16.71-3.57-.6-1.09-.72-1.18-.14-1.08-.54-.44-1.04-.47-.1,0-1.34-1.05-1.49-1.2-.89-.93-1.4-2.03-1.31-3.36-.86-.18-.33,1.4-.72,1.92-.08.06-.31-.14-.36-.24-.57-1.11,1.44-5.66-.35-6.71-.1.9-.84,1.27-1.14,2.1-.11.3-.62,4.43-1.02,3.89v-3.11c-1.57-.11-1.1,2.08-1.68,3l-.49-.61c-1.28.21-.85.63-1.21,1.5-.07.17-.42.18-.46.35-.22,1,.46,1.83-.75,2.57-.34.21-.88.22-1.12.44-.74.67-.8,3.98-1.02,5.09-.07.35,0,.75-.48.84v-3.35c-.33,0-.47-.08-.73.16-.24.21-1.4,2.29-1.68,2.78-1.26,2.15-2.16,5.41-2.91,7.92-.12.41-1.03,1.03-1.36,1.75-.83,1.79-1.44,4.04-2.16,5.79-.34.82-.24,2.05-.26,2.93.69-.97,1.55-1.13,2.41-1.78.27-.2.36-.68.53-.79.32-.2,1-.05,1.32-.36.21-.2.18-.78.33-.87.22-.14.81.08,1.32-.26.28-.19.11-.59.18-.67.45-.54,1.24-.88,1.86-1.35,1.74-1.33,3.61-2.96,5.11-4.46.42-.42.24-1.2.41-1.39.09-.1.59-.08.92-.4.71-.7,1.6-2.05,2.4-2.94.4-.45-.12-1.07,1.42-.78.35,1.63-1.67,2.1-1.92,3.59.68.04.74-.7,1.2-1.07.62-.48,2.11-1.15,2.86-.72.47.27.95,1.44,1.02,1.5.17.14.64-.06.68.19.06.32-.09.75-.01,1.14.03.16.39.16.51.49.14.37.84,3.21.9,3.64.34,2.29-1.76,2.89-2.44,4.96-.31.95-.29,3.03-.64,3.61-.38.62-1.27.1-1.42.18-.47.27-3.75,8.18-4.54,9.5-.23.38-.6.45-.7.61-.19.3,0,.9-.43,1.13-.14.07-.08-.93-.48-.24-.69,1.22-.97,3.47-1.8,4.79l-.24-.72-.95.72v-1.2c-.3-.15-.29,1.03-.72.48-.07-.1.05-.72,0-.96l-.71.72-.25-1.43-.47.48-.25-1.43c-.34-.06-.31.45-.36.71-.04.2-.22,2.92-.83,2.16-.05-1.8.57-3.47,0-5.27-.36-.02-.3.45-.59.72-.63.58-2.23,1.16-2.5,1.58-.47.72-.37,2.35-.74,3.21-.34.06-.35-.43-.41-.66-.34-1.4.25-2.27-1.64-1.98-.98.15-1.04,1.72-1.19,2.42-.06.26,0,.77-.36.71-.12-.96.26-2.61-.23-3.43-.08-.13-2.38-1.81-2.54-1.84-1.02-.23-.16,2.17-1.07,2.39v-3.35ZM46.29,24.97c-.17-.5-.89-.62-1.34-.69-10.61-1.85-20.02,6.11-25.39,14.34-.12.19-2.32,1.68-1.78,2.17.93.86,2.94-2.75,3.35-3.23,4.73-5.57,10.92-10.78,18.21-12.46,2.47-.57,4.44-.59,6.95-.12ZM43.18,33.6c-.34-.33-3.13,1.99-2.63,2.87l2.16-2.04.48-.84ZM16.34,43.42c-.14.16-.77-.34-.24,1.2h.23c.07-.29-.09-1.03,0-1.2.01-.02.37.06.49-.16.18-.33.18-.99.46-1.19.3-.21.91.62.96-.81-1.73-.21-1.6,1.79-1.92,2.16ZM34.13,59.23c0-.16-.13-.3-.3-.3s-.3.13-.3.3.13.3.3.3.3-.13.3-.3ZM30.48,62.35c-.45-.1-.57.25-.84.48-2.21,1.83-4.22,3.96-6.48,5.74-1.1.87-5.7,3.72-6,4.55-.11.32-.13.64-.11.97.24.27,4.27-2.65,4.77-3.02,2.33-1.75,6.14-4.78,7.8-7.06.15-.21.97-1.54.85-1.66Z"/>
    <g>
      <path class="cls-1" d="M46.29,24.97c-2.51-.47-4.48-.45-6.95.12-7.29,1.68-13.48,6.89-18.21,12.46-.41.49-2.42,4.09-3.35,3.23-.54-.49,1.66-1.98,1.78-2.17,5.37-8.23,14.79-16.19,25.39-14.34.45.08,1.17.19,1.34.69Z"/>
      <path class="cls-1" d="M30.48,62.35c.12.12-.7,1.45-.85,1.66-1.66,2.28-5.47,5.31-7.8,7.06-.49.37-4.52,3.29-4.77,3.02-.03-.33,0-.65.11-.97.29-.83,4.9-3.68,6-4.55,2.26-1.78,4.27-3.91,6.48-5.74.27-.22.39-.58.84-.48Z"/>
      <path class="cls-1" d="M43.18,33.6l-.48.84-2.16,2.04c-.5-.89,2.29-3.2,2.63-2.87Z"/>
      <path class="cls-1" d="M16.34,43.42c.31-.36.18-2.37,1.92-2.16-.06,1.43-.67.6-.96.81-.28.2-.28.86-.46,1.19-.12.22-.48.13-.49.16-.09.17.07.9,0,1.2h-.23c-.53-1.53.09-1.03.24-1.2Z"/>
      <circle class="cls-1" cx="33.84" cy="59.23" r=".3"/>
    </g>
  </g>
</svg>